REM DIRINDEX 1\2\6,1\2\7,1\2\8,1\3\9,1\3\10,1\3\11,1\4\12,1\4\13,1\4\14,1\5\15,1\5\16,1\5\17,1\5\18
REM DIRNAME folder01,folder02,folder03,folder04,folder05,folder06,folder07,folder08,folder09,folder10,folder11,folder12,folder13,folder14,folder15,folder16,folder17,folder18
TITLE ""
FILE "" MP3
  TRACK 01 AUDIO
    TITLE "16:cjc019_5963"
    INDEX 01 00:00:00
  TRACK 02 AUDIO
    TITLE "0:"
    INDEX 01 00:00:66
  TRACK 03 AUDIO
    TITLE "18:cjc019_5964"
    INDEX 01 00:01:52
  TRACK 04 AUDIO
    TITLE "0:"
    INDEX 01 00:04:25
  TRACK 05 AUDIO
    TITLE "17:cjc019_5965"
    INDEX 01 00:05:01
  TRACK 06 AUDIO
    TITLE "0:"
    INDEX 01 00:06:00
  TRACK 07 AUDIO
    TITLE "16:cjc019_5966"
    INDEX 01 00:07:60
  TRACK 08 AUDIO
    TITLE "0:"
    INDEX 01 00:09:24
  TRACK 09 AUDIO
    TITLE "18:cjc019_5967"
    INDEX 01 00:10:04
  TRACK 10 AUDIO
    TITLE "0:"
    INDEX 01 00:11:54
  TRACK 11 AUDIO
    TITLE "17:cjc019_5968"
    INDEX 01 00:12:30
  TRACK 12 AUDIO
    TITLE "0:"
    INDEX 01 00:13:69
  TRACK 13 AUDIO
    TITLE "16:cjc019_5969"
    INDEX 01 00:15:52
  TRACK 14 AUDIO
    TITLE "0:"
    INDEX 01 00:17:02
  TRACK 15 AUDIO
    TITLE "18:cjc019_5970"
    INDEX 01 00:17:57
  TRACK 16 AUDIO
    TITLE "0:"
    INDEX 01 00:19:36
  TRACK 17 AUDIO
    TITLE "17:cjc019_5971"
    INDEX 01 00:20:06
  TRACK 18 AUDIO
    TITLE "0:"
    INDEX 01 00:21:35
  TRACK 19 AUDIO
    TITLE "16:cjc019_5972"
    INDEX 01 00:23:18
  TRACK 20 AUDIO
    TITLE "0:"
    INDEX 01 00:24:27
  TRACK 21 AUDIO
    TITLE "18:cjc019_5973"
    INDEX 01 00:25:15
  TRACK 22 AUDIO
    TITLE "0:"
    INDEX 01 00:28:12
  TRACK 23 AUDIO
    TITLE "17:cjc019_5974"
    INDEX 01 00:28:68
  TRACK 24 AUDIO
    TITLE "0:"
    INDEX 01 00:30:10
  TRACK 25 AUDIO
    TITLE "16:cjc019_5975"
    INDEX 01 00:31:65
  TRACK 26 AUDIO
    TITLE "0:"
    INDEX 01 00:33:01
  TRACK 27 AUDIO
    TITLE "18:cjc019_5976"
    INDEX 01 00:33:60
  TRACK 28 AUDIO
    TITLE "0:"
    INDEX 01 00:36:27
  TRACK 29 AUDIO
    TITLE "17:cjc019_5977"
    INDEX 01 00:37:07
  TRACK 30 AUDIO
    TITLE "0:"
    INDEX 01 00:38:14
  TRACK 31 AUDIO
    TITLE "16:cjc019_5978"
    INDEX 01 00:39:74
  TRACK 32 AUDIO
    TITLE "0:"
    INDEX 01 00:41:18
  TRACK 33 AUDIO
    TITLE "18:cjc019_5979"
    INDEX 01 00:42:02
  TRACK 34 AUDIO
    TITLE "0:"
    INDEX 01 00:43:40
  TRACK 35 AUDIO
    TITLE "17:cjc019_5980"
    INDEX 01 00:44:16
  TRACK 36 AUDIO
    TITLE "0:"
    INDEX 01 00:45:37
  TRACK 37 AUDIO
    TITLE "16:cjc019_5981"
    INDEX 01 00:47:27
  TRACK 38 AUDIO
    TITLE "0:"
    INDEX 01 00:48:65
  TRACK 39 AUDIO
    TITLE "18:cjc019_5982"
    INDEX 01 00:49:49
  TRACK 40 AUDIO
    TITLE "0:"
    INDEX 01 00:51:18
  TRACK 41 AUDIO
    TITLE "17:cjc019_5983"
    INDEX 01 00:52:02
  TRACK 42 AUDIO
    TITLE "0:"
    INDEX 01 00:53:39
  TRACK 43 AUDIO
    TITLE "16:cjc019_5984"
    INDEX 01 00:55:30
  TRACK 44 AUDIO
    TITLE "0:"
    INDEX 01 00:56:47
  TRACK 45 AUDIO
    TITLE "18:cjc019_5985"
    INDEX 01 00:57:29
  TRACK 46 AUDIO
    TITLE "0:"
    INDEX 01 01:00:72
  TRACK 47 AUDIO
    TITLE "17:cjc019_5986"
    INDEX 01 01:01:46
  TRACK 48 AUDIO
    TITLE "0:"
    INDEX 01 01:02:71
  TRACK 49 AUDIO
    TITLE "16:cjc019_5987"
    INDEX 01 01:04:58
  TRACK 50 AUDIO
    TITLE "0:"
    INDEX 01 01:06:04
  TRACK 51 AUDIO
    TITLE "18:cjc019_5988"
    INDEX 01 01:06:57
  TRACK 52 AUDIO
    TITLE "0:"
    INDEX 01 01:08:35
  TRACK 53 AUDIO
    TITLE "17:cjc019_5989"
    INDEX 01 01:09:14
  TRACK 54 AUDIO
    TITLE "0:"
    INDEX 01 01:10:37
  TRACK 55 AUDIO
    TITLE "16:cjc019_5990"
    INDEX 01 01:12:15
  TRACK 56 AUDIO
    TITLE "0:"
    INDEX 01 01:13:32
  TRACK 57 AUDIO
    TITLE "18:cjc019_5991"
    INDEX 01 01:14:12
  TRACK 58 AUDIO
    TITLE "0:"
    INDEX 01 01:17:28
  TRACK 59 AUDIO
    TITLE "17:cjc019_5992"
    INDEX 01 01:18:06
  TRACK 60 AUDIO
    TITLE "0:"
    INDEX 01 01:19:27
  TRACK 61 AUDIO
    TITLE "16:cjc019_5993"
    INDEX 01 01:21:04
  TRACK 62 AUDIO
    TITLE "0:"
    INDEX 01 01:22:29
  TRACK 63 AUDIO
    TITLE "18:cjc019_5994"
    INDEX 01 01:23:15
  TRACK 64 AUDIO
    TITLE "0:"
    INDEX 01 01:24:69
  TRACK 65 AUDIO
    TITLE "17:cjc019_5995"
    INDEX 01 01:25:49
  TRACK 66 AUDIO
    TITLE "0:"
    INDEX 01 01:27:08
  TRACK 67 AUDIO
    TITLE "16:cjc019_5996"
    INDEX 01 01:28:65
  TRACK 68 AUDIO
    TITLE "0:"
    INDEX 01 01:29:68
  TRACK 69 AUDIO
    TITLE "18:cjc019_5997"
    INDEX 01 01:30:44
  TRACK 70 AUDIO
    TITLE "0:"
    INDEX 01 01:33:60
  TRACK 71 AUDIO
    TITLE "17:cjc019_5998"
    INDEX 01 01:34:36
  TRACK 72 AUDIO
    TITLE "0:"
    INDEX 01 01:35:39
  TRACK 73 AUDIO
    TITLE "16:cjc019_5999"
    INDEX 01 01:37:21
  TRACK 74 AUDIO
    TITLE "0:"
    INDEX 01 01:38:32
  TRACK 75 AUDIO
    TITLE "18:cjc019_6000"
    INDEX 01 01:39:10
  TRACK 76 AUDIO
    TITLE "0:"
    INDEX 01 01:40:52
  TRACK 77 AUDIO
    TITLE "17:cjc019_6001"
    INDEX 01 01:41:36
  TRACK 78 AUDIO
    TITLE "0:"
    INDEX 01 01:42:43
  TRACK 79 AUDIO
    TITLE "16:cjc019_6002"
    INDEX 01 01:44:19
  TRACK 80 AUDIO
    TITLE "0:"
    INDEX 01 01:45:26
  TRACK 81 AUDIO
    TITLE "18:cjc019_6003"
    INDEX 01 01:46:14
  TRACK 82 AUDIO
    TITLE "0:"
    INDEX 01 01:47:66
  TRACK 83 AUDIO
    TITLE "17:cjc019_6004"
    INDEX 01 01:48:50
  TRACK 84 AUDIO
    TITLE "0:"
    INDEX 01 01:49:59
  TRACK 85 AUDIO
    TITLE "16:cjc019_6005"
    INDEX 01 01:51:36
  TRACK 86 AUDIO
    TITLE "0:"
    INDEX 01 01:52:51
  TRACK 87 AUDIO
    TITLE "18:cjc019_6006"
    INDEX 01 01:53:35
  TRACK 88 AUDIO
    TITLE "0:"
    INDEX 01 01:56:41
  TRACK 89 AUDIO
    TITLE "17:cjc019_6007"
    INDEX 01 01:57:19
  TRACK 90 AUDIO
    TITLE "0:"
    INDEX 01 01:58:34
  TRACK 91 AUDIO
    TITLE "16:cjc019_6008"
    INDEX 01 02:00:24
  TRACK 92 AUDIO
    TITLE "0:"
    INDEX 01 02:01:50
  TRACK 93 AUDIO
    TITLE "18:cjc019_6009"
    INDEX 01 02:02:26
  TRACK 94 AUDIO
    TITLE "0:"
    INDEX 01 02:03:73
  TRACK 95 AUDIO
    TITLE "17:cjc019_6010"
    INDEX 01 02:04:53
  TRACK 96 AUDIO
    TITLE "0:"
    INDEX 01 02:06:03
  TRACK 97 AUDIO
    TITLE "16:cjc019_6011"
    INDEX 01 02:07:53
  TRACK 98 AUDIO
    TITLE "0:"
    INDEX 01 02:09:03
  TRACK 99 AUDIO
    TITLE "18:cjc019_6012"
    INDEX 01 02:09:60
  TRACK 100 AUDIO
    TITLE "0:"
    INDEX 01 02:13:54
  TRACK 101 AUDIO
    TITLE "17:cjc019_6013"
    INDEX 01 02:14:28
  TRACK 102 AUDIO
    TITLE "0:"
    INDEX 01 02:15:56
  TRACK 103 AUDIO
    TITLE "16:cjc019_6014"
    INDEX 01 02:17:34
  TRACK 104 AUDIO
    TITLE "0:"
    INDEX 01 02:18:51
  TRACK 105 AUDIO
    TITLE "18:cjc019_6015"
    INDEX 01 02:19:35
  TRACK 106 AUDIO
    TITLE "0:"
    INDEX 01 02:22:25
  TRACK 107 AUDIO
    TITLE "17:cjc019_6016"
    INDEX 01 02:22:74
  TRACK 108 AUDIO
    TITLE "0:"
    INDEX 01 02:24:28
